<mxfile host="app.diagrams.net" modified="2021-05-11T03:43:03.534Z" agent="5.0 (Windows NT 10.0; Win64; x64) AppleWebKit/537.36 (KHTML, like Gecko) Chrome/89.0.4389.82 Safari/537.36" etag="lRh0K1Uo3Ucu3bLa9oC0" version="14.6.11" type="github">
  <diagram id="iIrA9oG2sKg4ltZJzNLV" name="第 1 页">
    <mxGraphModel dx="1422" dy="762" grid="0" gridSize="10" guides="1" tooltips="1" connect="1" arrows="1" fold="1" page="1" pageScale="1" pageWidth="2339" pageHeight="3300" background="none" math="0" shadow="0">
      <root>
        <mxCell id="0" />
        <mxCell id="1" parent="0" />
        <mxCell id="jKra-XPA3IqdT7nAcHyK-9" style="edgeStyle=orthogonalEdgeStyle;orthogonalLoop=1;jettySize=auto;html=1;exitX=0.5;exitY=1;exitDx=0;exitDy=0;entryX=0;entryY=0.5;entryDx=0;entryDy=0;sketch=1;" parent="1" source="jKra-XPA3IqdT7nAcHyK-1" target="jKra-XPA3IqdT7nAcHyK-5" edge="1">
          <mxGeometry relative="1" as="geometry" />
        </mxCell>
        <mxCell id="jKra-XPA3IqdT7nAcHyK-1" value="线程 A" style="ellipse;whiteSpace=wrap;html=1;aspect=fixed;fillColor=#d5e8d4;strokeColor=#82b366;sketch=1;" parent="1" vertex="1">
          <mxGeometry x="281" y="340" width="80" height="80" as="geometry" />
        </mxCell>
        <mxCell id="jKra-XPA3IqdT7nAcHyK-2" value="资源1" style="whiteSpace=wrap;html=1;fillColor=#f8cecc;strokeColor=#b85450;sketch=1;" parent="1" vertex="1">
          <mxGeometry x="591" y="340" width="120" height="60" as="geometry" />
        </mxCell>
        <mxCell id="jKra-XPA3IqdT7nAcHyK-3" value="线程 B" style="ellipse;whiteSpace=wrap;html=1;aspect=fixed;fillColor=#d5e8d4;strokeColor=#82b366;sketch=1;" parent="1" vertex="1">
          <mxGeometry x="981" y="330" width="80" height="80" as="geometry" />
        </mxCell>
        <mxCell id="jKra-XPA3IqdT7nAcHyK-4" value="线程 C" style="ellipse;whiteSpace=wrap;html=1;aspect=fixed;fillColor=#d5e8d4;strokeColor=#82b366;sketch=1;" parent="1" vertex="1">
          <mxGeometry x="991" y="630" width="80" height="80" as="geometry" />
        </mxCell>
        <mxCell id="jKra-XPA3IqdT7nAcHyK-5" value="资源2" style="whiteSpace=wrap;html=1;fillColor=#fff2cc;strokeColor=#d6b656;sketch=1;" parent="1" vertex="1">
          <mxGeometry x="591" y="640" width="120" height="60" as="geometry" />
        </mxCell>
        <mxCell id="jKra-XPA3IqdT7nAcHyK-7" value="" style="shape=singleArrow;whiteSpace=wrap;html=1;sketch=1;" parent="1" vertex="1">
          <mxGeometry x="401" y="350" width="130" height="60" as="geometry" />
        </mxCell>
        <mxCell id="jKra-XPA3IqdT7nAcHyK-11" value="" style="shape=singleArrow;direction=west;whiteSpace=wrap;html=1;sketch=1;" parent="1" vertex="1">
          <mxGeometry x="801" y="340" width="120" height="60" as="geometry" />
        </mxCell>
        <mxCell id="jKra-XPA3IqdT7nAcHyK-12" value="" style="shape=singleArrow;direction=west;whiteSpace=wrap;html=1;sketch=1;" parent="1" vertex="1">
          <mxGeometry x="811" y="640" width="120" height="60" as="geometry" />
        </mxCell>
        <mxCell id="jKra-XPA3IqdT7nAcHyK-13" value="持有锁" style="text;html=1;strokeColor=none;fillColor=none;align=center;verticalAlign=middle;whiteSpace=wrap;sketch=1;" parent="1" vertex="1">
          <mxGeometry x="441" y="320" width="40" height="20" as="geometry" />
        </mxCell>
        <mxCell id="jKra-XPA3IqdT7nAcHyK-14" value="持有锁" style="text;html=1;strokeColor=none;fillColor=none;align=center;verticalAlign=middle;whiteSpace=wrap;sketch=1;" parent="1" vertex="1">
          <mxGeometry x="851" y="610" width="40" height="20" as="geometry" />
        </mxCell>
        <mxCell id="jKra-XPA3IqdT7nAcHyK-15" value="期望获取资源2，被阻塞" style="text;html=1;strokeColor=none;fillColor=none;align=center;verticalAlign=middle;whiteSpace=wrap;sketch=1;" parent="1" vertex="1">
          <mxGeometry x="341" y="530" width="180" height="10" as="geometry" />
        </mxCell>
        <mxCell id="jKra-XPA3IqdT7nAcHyK-16" value="期望获取资源1，被阻塞" style="text;html=1;strokeColor=none;fillColor=none;align=center;verticalAlign=middle;whiteSpace=wrap;sketch=1;" parent="1" vertex="1">
          <mxGeometry x="771" y="320" width="180" height="10" as="geometry" />
        </mxCell>
      </root>
    </mxGraphModel>
  </diagram>
</mxfile>
